<svg width="50" height="112" viewBox="0 0 50 112" fill="none" xmlns="http://www.w3.org/2000/svg">
<path d="M47.3972 0C47.7853 9.34663e-05 48.1648 0.130021 48.4875 0.373364C48.8102 0.616707 49.0617 0.962515 49.2101 1.36708C49.3586 1.77164 49.3973 2.21679 49.3214 2.6462C49.2456 3.07561 49.0586 3.46998 48.784 3.77949L4.88158 53.3074C4.26575 54.0064 3.92005 54.9518 3.92005 55.9373C3.92005 56.9227 4.26575 57.8682 4.88158 58.5672L48.784 108.092C49.1415 108.51 49.3393 109.069 49.3348 109.649C49.3304 110.23 49.124 110.785 48.7601 111.195C48.3963 111.606 47.9041 111.839 47.3895 111.844C46.875 111.849 46.3792 111.625 46.0091 111.222L2.11183 61.6973C0.759464 60.1682 0 58.0965 0 55.9365C0 53.7766 0.759464 51.7049 2.11183 50.1758L46.0143 0.649356C46.381 0.23517 46.8782 0.0016883 47.3972 0Z" fill="#444141"/>
</svg>
