<svg width="148" height="116" viewBox="0 0 148 116" fill="none" xmlns="http://www.w3.org/2000/svg">
<ellipse cx="71" cy="58" rx="57" ry="58" fill="#D9E7F4"/>
<path d="M13.176 91.632C15.144 91.632 16.668 91.356 17.748 90.804C18.828 90.252 19.368 89.448 19.368 88.392C19.368 87.456 19.044 86.652 18.396 85.98C17.748 85.284 16.944 84.696 15.984 84.216C15.024 83.736 13.716 83.172 12.06 82.524C11.916 82.476 11.568 82.344 11.016 82.128C8.76 81.216 7.02 80.304 5.796 79.392C4.596 78.48 3.996 77.304 3.996 75.864C3.996 74.256 4.632 73.044 5.904 72.228C7.176 71.412 8.808 71.004 10.8 71.004C12.264 71.004 13.608 71.196 14.832 71.58C16.08 71.94 17.064 72.444 17.784 73.092C18.528 73.74 18.9 74.472 18.9 75.288C18.612 75.432 18.336 75.504 18.072 75.504C17.784 75.504 17.484 75.444 17.172 75.324C16.884 75.18 16.452 74.952 15.876 74.64C14.94 74.136 14.064 73.74 13.248 73.452C12.432 73.14 11.472 72.984 10.368 72.984C8.976 72.984 7.848 73.224 6.984 73.704C6.12 74.184 5.688 74.856 5.688 75.72C5.688 76.392 5.976 77.004 6.552 77.556C7.152 78.108 7.896 78.6 8.784 79.032C9.696 79.44 10.908 79.932 12.42 80.508C14.34 81.252 15.924 81.948 17.172 82.596C18.42 83.244 19.476 84.072 20.34 85.08C21.228 86.064 21.672 87.24 21.672 88.608C21.672 90.216 20.904 91.464 19.368 92.352C17.832 93.216 15.924 93.648 13.644 93.648C11.844 93.648 10.068 93.384 8.316 92.856C6.564 92.328 5.064 91.548 3.816 90.516C2.568 89.46 1.776 88.2 1.44 86.736C1.44 86.088 1.62 85.536 1.98 85.08C2.34 84.6 2.784 84.36 3.312 84.36C3.312 85.92 3.744 87.252 4.608 88.356C5.496 89.436 6.684 90.252 8.172 90.804C9.684 91.356 11.352 91.632 13.176 91.632ZM35.6617 93.036C34.9897 93.036 34.5217 92.688 34.2577 91.992C33.9937 91.296 33.7777 90.36 33.6097 89.184L33.5017 88.284C33.1417 86.364 32.8537 84.456 32.6377 82.56C32.4217 80.64 32.2057 78.324 31.9897 75.612L31.7737 72.948C30.3337 72.972 28.2817 72.912 25.6177 72.768L24.8977 72.732C24.5617 72.708 24.3217 72.552 24.1777 72.264C24.0577 71.952 23.9977 71.532 23.9977 71.004H26.4817C30.6577 71.004 34.4257 71.16 37.7857 71.472C41.1457 71.784 42.8257 72.42 42.8257 73.38C42.8257 73.644 42.7777 73.824 42.6817 73.92C42.6097 74.016 42.4417 74.064 42.1777 74.064C41.2177 73.992 39.7297 73.788 37.7137 73.452C37.2577 73.38 36.7057 73.296 36.0577 73.2C35.4097 73.104 34.6777 73.008 33.8617 72.912C33.8617 76.392 34.3777 81.744 35.4097 88.968C35.4577 89.328 35.6257 89.844 35.9137 90.516C36.0337 90.804 36.1417 91.116 36.2377 91.452C36.3577 91.764 36.4177 92.052 36.4177 92.316C36.4177 92.652 36.3697 92.856 36.2737 92.928C36.1777 93 36.0577 93.036 35.9137 93.036C35.7937 93.036 35.7097 93.036 35.6617 93.036ZM55.9024 93.036C53.9104 93.036 52.1224 92.628 50.5384 91.812C48.9784 90.996 47.7544 89.844 46.8664 88.356C45.9784 86.868 45.5344 85.152 45.5344 83.208C45.5344 81.888 45.7984 80.676 46.3264 79.572C46.8544 78.468 47.6224 77.592 48.6304 76.944C49.6384 76.272 50.8264 75.936 52.1944 75.936C54.7864 75.936 57.0904 76.38 59.1064 77.268C61.1464 78.132 62.7304 79.38 63.8584 81.012C65.0104 82.644 65.5864 84.528 65.5864 86.664C65.5864 88.08 65.0584 89.268 64.0024 90.228C62.9704 91.188 61.6984 91.896 60.1864 92.352C58.6984 92.808 57.2704 93.036 55.9024 93.036ZM55.2184 91.164C57.6184 91.164 59.6344 90.804 61.2664 90.084C62.9224 89.364 63.7504 88.164 63.7504 86.484C63.7504 83.556 62.6224 81.36 60.3664 79.896C58.1104 78.408 55.2304 77.664 51.7264 77.664C50.0464 77.664 48.8584 78.168 48.1624 79.176C47.4904 80.16 47.1544 81.504 47.1544 83.208C47.1544 84.624 47.4904 85.944 48.1624 87.168C48.8584 88.368 49.8184 89.34 51.0424 90.084C52.2664 90.804 53.6584 91.164 55.2184 91.164ZM84.834 94.224C84.666 94.416 84.426 94.512 84.114 94.512C82.986 94.512 81.186 93.48 78.714 91.416C76.266 89.328 74.094 87.252 72.198 85.188C72.318 85.836 72.546 86.928 72.882 88.464C73.026 89.064 73.146 89.64 73.242 90.192C73.362 90.744 73.422 91.176 73.422 91.488C73.422 92.184 73.17 92.604 72.666 92.748C72.546 93.06 72.222 92.28 71.694 90.408C71.19 88.536 70.71 86.376 70.254 83.928C69.822 81.456 69.606 79.392 69.606 77.736C69.606 76.896 69.678 76.212 69.822 75.684C70.134 75.444 70.398 75.324 70.614 75.324C71.046 75.324 71.346 75.696 71.514 76.44C71.682 77.16 71.838 78.3 71.982 79.86L72.054 80.688C72.99 80.64 74.262 80.436 75.87 80.076C77.502 79.716 78.954 79.224 80.226 78.6C81.522 77.952 82.17 77.184 82.17 76.296C82.17 75.816 81.822 75.288 81.126 74.712C80.454 74.112 79.41 73.608 77.994 73.2C76.602 72.792 74.886 72.588 72.846 72.588H71.694C70.326 72.588 69.258 72.816 68.49 73.272C67.722 73.704 67.338 74.64 67.338 76.08C66.978 76.08 66.654 75.852 66.366 75.396C66.078 74.94 65.934 74.52 65.934 74.136C65.934 72.648 66.642 71.676 68.058 71.22C69.498 70.764 71.562 70.536 74.25 70.536C75.666 70.536 77.142 70.764 78.678 71.22C80.214 71.676 81.51 72.396 82.566 73.38C83.622 74.34 84.15 75.54 84.15 76.98C84.15 77.964 83.706 78.78 82.818 79.428C81.954 80.076 80.934 80.58 79.758 80.94C78.582 81.3 77.142 81.672 75.438 82.056C74.022 82.368 73.098 82.596 72.666 82.74C74.514 85.236 76.29 87.18 77.994 88.572C79.722 89.964 81.522 91.224 83.394 92.352C84.042 92.736 84.498 93.024 84.762 93.216C85.026 93.408 85.158 93.588 85.158 93.756C85.158 93.924 85.05 94.08 84.834 94.224ZM91.1244 93C90.8124 93.12 90.5124 93.048 90.2244 92.784C89.9604 92.52 89.8164 92.148 89.7924 91.668C89.6964 90.972 89.5884 90.12 89.4684 89.112C89.3724 88.104 89.3004 87.36 89.2524 86.88C89.2044 86.4 89.0964 85.476 88.9284 84.108C88.7844 82.716 88.6284 81.516 88.4604 80.508C88.4124 80.172 88.2564 79.572 87.9924 78.708C87.2964 76.236 86.9484 74.448 86.9484 73.344C87.1164 73.104 87.2844 72.984 87.4524 72.984C88.0764 72.984 88.7244 74.232 89.3964 76.728C90.0684 79.224 90.6324 82.044 91.0884 85.188C91.5684 88.308 91.8084 90.444 91.8084 91.596C91.8084 91.644 91.8084 91.8 91.8084 92.064C91.8084 92.304 91.7484 92.508 91.6284 92.676C91.5324 92.844 91.3644 92.952 91.1244 93ZM102.909 93.036C100.917 93.036 99.4651 92.664 98.5531 91.92C97.6651 91.176 97.2211 89.832 97.2211 87.888L97.7251 79.824V72.084C97.7251 71.484 97.8451 71.1 98.0851 70.932C98.3251 70.74 98.8531 70.644 99.6691 70.644L102.117 70.716C105.189 70.884 108.189 70.968 111.117 70.968C111.741 70.968 112.233 71.148 112.593 71.508C112.977 71.868 113.169 72.36 113.169 72.984C113.169 73.104 113.133 73.2 113.061 73.272C112.989 73.344 112.905 73.368 112.809 73.344L111.117 72.696L99.8491 72.984C99.7051 72.984 99.6211 72.972 99.5971 72.948C99.6931 73.14 99.7411 73.308 99.7411 73.452V79.824C100.845 79.896 101.913 79.932 102.945 79.932C104.721 79.932 106.677 79.848 108.813 79.68C109.029 79.656 109.353 79.632 109.785 79.608C110.241 79.56 110.493 79.56 110.541 79.608C110.685 79.752 110.793 79.884 110.865 80.004C110.937 80.124 110.985 80.292 111.009 80.508C111.081 81.036 110.277 81.384 108.597 81.552C106.941 81.72 104.721 81.852 101.937 81.948C101.001 81.948 100.221 81.972 99.5971 82.02C99.3091 82.74 99.1651 83.892 99.1651 85.476L99.2011 87.6V89.94C99.5851 90.252 100.005 90.456 100.461 90.552C100.917 90.648 101.661 90.696 102.693 90.696C103.773 90.696 104.829 90.636 105.861 90.516C106.917 90.396 107.541 90.324 107.733 90.3C109.749 90.06 111.249 89.94 112.233 89.94C112.809 89.94 113.205 90 113.421 90.12C113.661 90.216 113.781 90.396 113.781 90.66C113.781 92.244 110.565 93.036 104.133 93.036H102.909ZM128.629 91.632C130.597 91.632 132.121 91.356 133.201 90.804C134.281 90.252 134.821 89.448 134.821 88.392C134.821 87.456 134.497 86.652 133.849 85.98C133.201 85.284 132.397 84.696 131.437 84.216C130.477 83.736 129.169 83.172 127.513 82.524C127.369 82.476 127.021 82.344 126.469 82.128C124.213 81.216 122.473 80.304 121.249 79.392C120.049 78.48 119.449 77.304 119.449 75.864C119.449 74.256 120.085 73.044 121.357 72.228C122.629 71.412 124.261 71.004 126.253 71.004C127.717 71.004 129.061 71.196 130.285 71.58C131.533 71.94 132.517 72.444 133.237 73.092C133.981 73.74 134.353 74.472 134.353 75.288C134.065 75.432 133.789 75.504 133.525 75.504C133.237 75.504 132.937 75.444 132.625 75.324C132.337 75.18 131.905 74.952 131.329 74.64C130.393 74.136 129.517 73.74 128.701 73.452C127.885 73.14 126.925 72.984 125.821 72.984C124.429 72.984 123.301 73.224 122.437 73.704C121.573 74.184 121.141 74.856 121.141 75.72C121.141 76.392 121.429 77.004 122.005 77.556C122.605 78.108 123.349 78.6 124.237 79.032C125.149 79.44 126.361 79.932 127.873 80.508C129.793 81.252 131.377 81.948 132.625 82.596C133.873 83.244 134.929 84.072 135.793 85.08C136.681 86.064 137.125 87.24 137.125 88.608C137.125 90.216 136.357 91.464 134.821 92.352C133.285 93.216 131.377 93.648 129.097 93.648C127.297 93.648 125.521 93.384 123.769 92.856C122.017 92.328 120.517 91.548 119.269 90.516C118.021 89.46 117.229 88.2 116.893 86.736C116.893 86.088 117.073 85.536 117.433 85.08C117.793 84.6 118.237 84.36 118.765 84.36C118.765 85.92 119.197 87.252 120.061 88.356C120.949 89.436 122.137 90.252 123.625 90.804C125.137 91.356 126.805 91.632 128.629 91.632Z" fill="black"/>
<path d="M30.94 64.06C29.82 64.06 29.04 63.48 28.6 62.32C28.16 61.16 27.8 59.6 27.52 57.64L27.34 56.14C26.74 52.94 26.26 49.76 25.9 46.6C25.54 43.4 25.18 39.54 24.82 35.02L24.46 30.58C22.06 30.62 18.64 30.52 14.2 30.28L13 30.22C12.44 30.18 12.04 29.92 11.8 29.44C11.6 28.92 11.5 28.22 11.5 27.34H15.64C22.6 27.34 28.88 27.6 34.48 28.12C40.08 28.64 42.88 29.7 42.88 31.3C42.88 31.74 42.8 32.04 42.64 32.2C42.52 32.36 42.24 32.44 41.8 32.44C40.2 32.32 37.72 31.98 34.36 31.42C33.6 31.3 32.68 31.16 31.6 31C30.52 30.84 29.3 30.68 27.94 30.52C27.94 36.32 28.8 45.24 30.52 57.28C30.6 57.88 30.88 58.74 31.36 59.86C31.56 60.34 31.74 60.86 31.9 61.42C32.1 61.94 32.2 62.42 32.2 62.86C32.2 63.42 32.12 63.76 31.96 63.88C31.8 64 31.6 64.06 31.36 64.06C31.16 64.06 31.02 64.06 30.94 64.06ZM54.3545 64C53.8345 64.2 53.3345 64.08 52.8545 63.64C52.4145 63.2 52.1745 62.58 52.1345 61.78C51.9745 60.62 51.7945 59.2 51.5945 57.52C51.4345 55.84 51.3145 54.6 51.2345 53.8C51.1545 53 50.9745 51.46 50.6945 49.18C50.4545 46.86 50.1945 44.86 49.9145 43.18C49.8345 42.62 49.5745 41.62 49.1345 40.18C47.9745 36.06 47.3945 33.08 47.3945 31.24C47.6745 30.84 47.9545 30.64 48.2345 30.64C49.2745 30.64 50.3545 32.72 51.4745 36.88C52.5945 41.04 53.5345 45.74 54.2945 50.98C55.0945 56.18 55.4945 59.74 55.4945 61.66C55.4945 61.74 55.4945 62 55.4945 62.44C55.4945 62.84 55.3945 63.18 55.1945 63.46C55.0345 63.74 54.7545 63.92 54.3545 64ZM87.4356 34.12C88.5956 34.12 89.7956 35.26 91.0356 37.54C92.2756 39.82 93.3156 42.44 94.1556 45.4C94.9956 48.32 95.4156 50.5 95.4156 51.94C95.4156 54.14 94.9356 56.12 93.9756 57.88C93.0556 59.6 91.7356 60.96 90.0156 61.96C88.2956 62.92 86.3356 63.4 84.1356 63.4C81.0956 63.4 78.4556 62.58 76.2156 60.94C74.0156 59.3 72.2556 57.42 70.9356 55.3C69.6156 53.14 68.2556 50.56 66.8556 47.56L66.0156 45.76L66.1356 60.28C66.1356 61.16 65.9756 62.02 65.6556 62.86C65.3756 63.66 64.8756 64.06 64.1556 64.06C63.4356 64.06 62.9156 63.66 62.5956 62.86C62.2756 62.02 62.1156 61.2 62.1156 60.4C62.1156 57.84 62.3156 54.16 62.7156 49.36C63.1156 44.56 63.3156 40.98 63.3156 38.62C63.3156 38.06 63.2756 37.48 63.1956 36.88C63.1156 36.28 63.0556 35.86 63.0156 35.62C62.8156 34.54 62.7156 33.58 62.7156 32.74V32.5C62.8356 32.5 63.1956 32.42 63.7956 32.26C64.4356 32.06 64.8156 31.96 64.9356 31.96H65.5356C67.0556 38.8 69.2956 45.12 72.2556 50.92C75.2556 56.68 79.3556 59.56 84.5556 59.56C86.9956 59.56 88.8356 58.84 90.0756 57.4C91.3556 55.92 91.9956 53.94 91.9956 51.46C91.9956 49.34 91.6556 47.4 90.9756 45.64C90.2956 43.84 89.2756 41.64 87.9156 39.04L86.2956 35.86C86.1756 35.66 86.1156 35.46 86.1156 35.26C86.1156 34.94 86.2356 34.68 86.4756 34.48C86.7156 34.24 87.0356 34.12 87.4356 34.12ZM66.1356 60.28V60.16V60.28ZM122.704 29.5C122.704 29.3 122.944 29.12 123.424 28.96C123.904 28.76 124.364 28.66 124.804 28.66C125.124 28.66 125.364 28.74 125.524 28.9C125.684 29.02 125.684 29.22 125.524 29.5C125.204 30.14 124.484 31.5 123.364 33.58C121.684 36.7 120.344 39.42 119.344 41.74C118.344 44.06 117.484 46.88 116.764 50.2C116.044 53.52 115.684 57.32 115.684 61.6L115.744 65.02C115.744 65.42 115.564 65.72 115.204 65.92C114.884 66.12 114.464 66.22 113.944 66.22C113.544 66.22 113.284 66.16 113.164 66.04C113.084 65.92 113.044 65.74 113.044 65.5C113.044 65.26 113.044 65.08 113.044 64.96C112.924 63.4 112.864 61.92 112.864 60.52C112.864 57.36 113.144 54.34 113.704 51.46C111.304 48.5 109.344 45.98 107.824 43.9C106.344 41.78 104.944 39.44 103.624 36.88C102.304 34.32 101.064 31.36 99.9039 28C99.9839 28.04 100.384 28.02 101.104 27.94C101.824 27.86 102.224 27.82 102.304 27.82L104.224 31.48C106.504 35.8 108.324 39.1 109.684 41.38C111.044 43.62 112.644 45.8 114.484 47.92C115.324 44.72 116.344 41.84 117.544 39.28C118.784 36.68 120.244 33.88 121.924 30.88L122.704 29.5Z" fill="black"/>
</svg>
