<svg width="98" height="77" viewBox="0 0 98 77" fill="none" xmlns="http://www.w3.org/2000/svg">
<path d="M47.0138 77C67.8588 77 84.757 59.763 84.757 38.5C84.757 17.237 67.8588 0 47.0138 0C26.1687 0 9.27051 17.237 9.27051 38.5C9.27051 59.763 26.1687 77 47.0138 77Z" fill="#E3B999"/>
<path d="M8.72426 60.8247C10.0274 60.8247 11.0365 60.6415 11.7517 60.275C12.4668 59.9086 12.8244 59.3749 12.8244 58.674C12.8244 58.0527 12.6098 57.519 12.1807 57.0729C11.7517 56.6109 11.2193 56.2206 10.5836 55.902C9.94794 55.5834 9.08183 55.209 7.98529 54.7788C7.88994 54.747 7.6595 54.6594 7.29399 54.516C5.80015 53.9106 4.64799 53.3052 3.8375 52.6998C3.04291 52.0945 2.64561 51.3138 2.64561 50.358C2.64561 49.2906 3.06675 48.4861 3.90902 47.9444C4.75129 47.4028 5.83194 47.1319 7.15096 47.1319C8.12037 47.1319 9.01031 47.2594 9.8208 47.5143C10.6472 47.7533 11.2987 48.0878 11.7755 48.5179C12.2682 48.9481 12.5145 49.434 12.5145 49.9756C12.3238 50.0712 12.141 50.119 11.9662 50.119C11.7755 50.119 11.5769 50.0792 11.3703 49.9995C11.1796 49.9039 10.8935 49.7526 10.5121 49.5455C9.89232 49.2109 9.31226 48.9481 8.77194 48.7569C8.23161 48.5498 7.59594 48.4463 6.86491 48.4463C5.94318 48.4463 5.19626 48.6056 4.62415 48.9242C4.05204 49.2428 3.76599 49.6889 3.76599 50.2624C3.76599 50.7085 3.95669 51.1147 4.3381 51.4811C4.7354 51.8475 5.22804 52.1741 5.81604 52.4609C6.41994 52.7317 7.22248 53.0583 8.22367 53.4406C9.49502 53.9345 10.5439 54.3965 11.3703 54.8266C12.1966 55.2568 12.8959 55.8064 13.468 56.4755C14.056 57.1287 14.35 57.9093 14.35 58.8174C14.35 59.8847 13.8414 60.7131 12.8244 61.3026C11.8073 61.8761 10.5439 62.1629 9.03415 62.1629C7.84226 62.1629 6.66626 61.9876 5.50615 61.6372C4.34604 61.2867 3.3528 60.7689 2.52642 60.0839C1.70004 59.3829 1.17561 58.5465 0.953125 57.5747C0.953125 57.1446 1.07231 56.7782 1.31069 56.4755C1.54907 56.1569 1.84307 55.9976 2.19269 55.9976C2.19269 57.0331 2.47875 57.9173 3.05085 58.6501C3.63885 59.367 4.4255 59.9086 5.4108 60.275C6.41199 60.6415 7.51648 60.8247 8.72426 60.8247ZM23.6134 61.7566C23.1685 61.7566 22.8586 61.5256 22.6838 61.0636C22.509 60.6016 22.3659 59.9803 22.2547 59.1997L22.1832 58.6023C21.9448 57.3278 21.7541 56.0613 21.6111 54.8027C21.468 53.5283 21.325 51.9909 21.182 50.1907L21.039 48.4224C20.0854 48.4383 18.7267 48.3985 16.9627 48.3029L16.4859 48.279C16.2634 48.263 16.1045 48.1595 16.0092 47.9683C15.9297 47.7612 15.89 47.4824 15.89 47.1319H17.5348C20.3 47.1319 22.795 47.2355 25.0199 47.4426C27.2447 47.6497 28.3572 48.0719 28.3572 48.7091C28.3572 48.8844 28.3254 49.0038 28.2618 49.0676C28.2141 49.1313 28.1029 49.1632 27.9281 49.1632C27.2924 49.1154 26.3071 48.9799 24.9722 48.7569C24.6703 48.7091 24.3047 48.6534 23.8757 48.5896C23.4466 48.5259 22.9619 48.4622 22.4215 48.3985C22.4215 50.7085 22.7632 54.2611 23.4466 59.0563C23.4784 59.2953 23.5896 59.6378 23.7803 60.0839C23.8598 60.275 23.9313 60.4822 23.9948 60.7052C24.0743 60.9123 24.114 61.1035 24.114 61.2787C24.114 61.5017 24.0823 61.6371 24.0187 61.6849C23.9551 61.7327 23.8757 61.7566 23.7803 61.7566C23.7008 61.7566 23.6452 61.7566 23.6134 61.7566ZM37.0161 61.7566C35.697 61.7566 34.5131 61.4858 33.4642 60.9441C32.4313 60.4025 31.6208 59.6378 31.0328 58.6501C30.4448 57.6624 30.1508 56.5233 30.1508 55.2329C30.1508 54.3567 30.3256 53.5521 30.6752 52.8193C31.0248 52.0865 31.5334 51.505 32.2008 51.0749C32.8683 50.6288 33.6549 50.4058 34.5608 50.4058C36.2771 50.4058 37.8027 50.7005 39.1376 51.2899C40.4884 51.8635 41.5373 52.6919 42.2842 53.7752C43.047 54.8585 43.4284 56.1091 43.4284 57.5269C43.4284 58.4669 43.0788 59.2555 42.3796 59.8927C41.6962 60.5299 40.854 60.9999 39.8528 61.3026C38.8675 61.6053 37.9219 61.7566 37.0161 61.7566ZM36.5631 60.514C38.1523 60.514 39.4873 60.275 40.5679 59.7971C41.6644 59.3192 42.2127 58.5226 42.2127 57.4075C42.2127 55.4639 41.4658 54.0062 39.972 53.0344C38.4781 52.0467 36.5711 51.5528 34.2509 51.5528C33.1384 51.5528 32.3518 51.8874 31.8909 52.5565C31.446 53.2096 31.2235 54.1018 31.2235 55.2329C31.2235 56.1728 31.446 57.049 31.8909 57.8615C32.3518 58.658 32.9875 59.3033 33.798 59.7971C34.6084 60.275 35.5302 60.514 36.5631 60.514ZM56.1735 62.5452C56.0622 62.6727 55.9033 62.7364 55.6967 62.7364C54.9498 62.7364 53.7579 62.0514 52.121 60.6813C50.5001 59.2953 49.0619 57.9173 47.8064 56.5472C47.8859 56.9773 48.0368 57.7022 48.2593 58.7218C48.3547 59.12 48.4341 59.5024 48.4977 59.8688C48.5771 60.2352 48.6169 60.522 48.6169 60.7291C48.6169 61.1911 48.45 61.4699 48.1163 61.5655C48.0368 61.7726 47.8223 61.2548 47.4727 60.0122C47.1389 58.7696 46.8211 57.3358 46.5192 55.7108C46.2331 54.0699 46.0901 52.6998 46.0901 51.6006C46.0901 51.043 46.1377 50.589 46.2331 50.2385C46.4397 50.0792 46.6145 49.9995 46.7575 49.9995C47.0436 49.9995 47.2422 50.2465 47.3535 50.7403C47.4647 51.2183 47.568 51.975 47.6634 53.0105L47.711 53.5601C48.3308 53.5283 49.1731 53.3928 50.2379 53.1539C51.3185 52.9149 52.28 52.5883 53.1222 52.1741C53.9804 51.744 54.4095 51.2342 54.4095 50.6447C54.4095 50.3261 54.179 49.9756 53.7182 49.5933C53.2732 49.195 52.5819 48.8605 51.6443 48.5896C50.7226 48.3188 49.5863 48.1834 48.2355 48.1834H47.4727C46.5668 48.1834 45.8596 48.3347 45.3511 48.6374C44.8426 48.9242 44.5883 49.5455 44.5883 50.5014C44.3499 50.5014 44.1354 50.35 43.9447 50.0473C43.754 49.7446 43.6586 49.4658 43.6586 49.2109C43.6586 48.2232 44.1274 47.578 45.065 47.2753C46.0186 46.9726 47.3853 46.8213 49.1652 46.8213C50.1028 46.8213 51.0801 46.9726 52.0972 47.2753C53.1143 47.578 53.9725 48.0559 54.6717 48.7091C55.3709 49.3464 55.7206 50.1429 55.7206 51.0988C55.7206 51.7519 55.4266 52.2936 54.8386 52.7237C54.2665 53.1539 53.591 53.4884 52.8123 53.7274C52.0336 53.9664 51.0801 54.2133 49.9518 54.4682C49.0142 54.6753 48.4023 54.8266 48.1163 54.9222C49.34 56.579 50.516 57.8695 51.6443 58.7935C52.7885 59.7175 53.9804 60.5538 55.22 61.3026C55.649 61.5575 55.951 61.7487 56.1258 61.8761C56.3006 62.0036 56.388 62.123 56.388 62.2346C56.388 62.3461 56.3165 62.4496 56.1735 62.5452ZM60.3387 61.7327C60.1321 61.8124 59.9335 61.7646 59.7428 61.5894C59.568 61.4141 59.4726 61.1672 59.4567 60.8486C59.3932 60.3866 59.3217 59.821 59.2422 59.1519C59.1786 58.4828 59.131 57.9889 59.0992 57.6703C59.0674 57.3517 58.9959 56.7384 58.8846 55.8303C58.7893 54.9063 58.686 54.1097 58.5747 53.4406C58.543 53.2176 58.4397 52.8193 58.2649 52.2458C57.804 50.6049 57.5736 49.418 57.5736 48.6852C57.6848 48.5259 57.796 48.4463 57.9073 48.4463C58.3205 48.4463 58.7496 49.2747 59.1945 50.9315C59.6395 52.5883 60.013 54.4602 60.3149 56.5472C60.6327 58.6182 60.7917 60.0361 60.7917 60.8008C60.7917 60.8326 60.7917 60.9362 60.7917 61.1114C60.7917 61.2707 60.7519 61.4062 60.6725 61.5177C60.6089 61.6292 60.4977 61.7009 60.3387 61.7327ZM68.1421 61.7566C66.823 61.7566 65.8616 61.5097 65.2577 61.0158C64.6697 60.522 64.3757 59.6298 64.3757 58.3394L64.7095 52.9866V47.8488C64.7095 47.4506 64.7889 47.1957 64.9479 47.0841C65.1068 46.9567 65.4564 46.893 65.9967 46.893L67.6176 46.9408C69.6518 47.0523 71.6383 47.108 73.5771 47.108C73.9903 47.108 74.3161 47.2275 74.5544 47.4665C74.8087 47.7055 74.9358 48.032 74.9358 48.4463C74.9358 48.5259 74.912 48.5896 74.8643 48.6374C74.8167 48.6852 74.761 48.7012 74.6975 48.6852L73.5771 48.2551L66.1159 48.4463C66.0206 48.4463 65.9649 48.4383 65.949 48.4224C66.0126 48.5498 66.0444 48.6613 66.0444 48.7569V52.9866C66.7754 53.0344 67.4825 53.0583 68.1659 53.0583C69.3419 53.0583 70.6371 53.0025 72.0515 52.891C72.1945 52.8751 72.409 52.8592 72.6951 52.8432C72.997 52.8114 73.1639 52.8114 73.1957 52.8432C73.291 52.9388 73.3625 53.0264 73.4102 53.1061C73.4579 53.1857 73.4897 53.2973 73.5056 53.4406C73.5532 53.7911 73.0209 54.0221 71.9084 54.1336C70.8119 54.2452 69.3419 54.3328 67.4984 54.3965C66.8787 54.3965 66.3622 54.4124 65.949 54.4443C65.7583 54.9222 65.663 55.6869 65.663 56.7384L65.6868 58.1483V59.7015C65.9411 59.9086 66.2191 60.044 66.5211 60.1078C66.823 60.1715 67.3157 60.2034 67.999 60.2034C68.7142 60.2034 69.4134 60.1635 70.0968 60.0839C70.796 60.0042 71.2092 59.9564 71.3363 59.9405C72.6712 59.7812 73.6645 59.7015 74.3161 59.7015C74.6975 59.7015 74.9597 59.7414 75.1027 59.821C75.2616 59.8847 75.3411 60.0042 75.3411 60.1795C75.3411 61.2309 73.2116 61.7566 68.9525 61.7566H68.1421ZM85.1729 60.8247C86.476 60.8247 87.4851 60.6415 88.2003 60.275C88.9154 59.9086 89.273 59.3749 89.273 58.674C89.273 58.0527 89.0584 57.519 88.6294 57.0729C88.2003 56.6109 87.6679 56.2206 87.0322 55.902C86.3965 55.5834 85.5304 55.209 84.4339 54.7788C84.3385 54.747 84.1081 54.6594 83.7426 54.516C82.2488 53.9106 81.0966 53.3052 80.2861 52.6998C79.4915 52.0945 79.0942 51.3138 79.0942 50.358C79.0942 49.2906 79.5154 48.4861 80.3576 47.9444C81.1999 47.4028 82.2805 47.1319 83.5996 47.1319C84.569 47.1319 85.4589 47.2594 86.2694 47.5143C87.0958 47.7533 87.7474 48.0878 88.2241 48.5179C88.7168 48.9481 88.9631 49.434 88.9631 49.9756C88.7724 50.0712 88.5896 50.119 88.4148 50.119C88.2241 50.119 88.0255 50.0792 87.8189 49.9995C87.6282 49.9039 87.3421 49.7526 86.9607 49.5455C86.3409 49.2109 85.7609 48.9481 85.2205 48.7569C84.6802 48.5498 84.0445 48.4463 83.3135 48.4463C82.3918 48.4463 81.6449 48.6056 81.0728 48.9242C80.5007 49.2428 80.2146 49.6889 80.2146 50.2624C80.2146 50.7085 80.4053 51.1147 80.7867 51.4811C81.184 51.8475 81.6767 52.1741 82.2647 52.4609C82.8685 52.7317 83.6711 53.0583 84.6723 53.4406C85.9436 53.9345 86.9925 54.3965 87.8189 54.8266C88.6452 55.2568 89.3445 55.8064 89.9166 56.4755C90.5046 57.1287 90.7986 57.9093 90.7986 58.8174C90.7986 59.8847 90.2901 60.7131 89.273 61.3026C88.2559 61.8761 86.9925 62.1629 85.4828 62.1629C84.2909 62.1629 83.1149 61.9876 81.9548 61.6372C80.7947 61.2867 79.8014 60.7689 78.975 60.0839C78.1487 59.3829 77.6242 58.5465 77.4017 57.5747C77.4017 57.1446 77.5209 56.7782 77.7593 56.4755C77.9977 56.1569 78.2917 55.9976 78.6413 55.9976C78.6413 57.0331 78.9274 57.9173 79.4995 58.6501C80.0875 59.367 80.8741 59.9086 81.8594 60.275C82.8606 60.6415 83.9651 60.8247 85.1729 60.8247Z" fill="#291F1E"/>
<path d="M20.4877 42.5226C19.746 42.5226 19.2296 42.1376 18.9382 41.3676C18.6469 40.5976 18.4085 39.562 18.2231 38.261L18.1039 37.2653C17.7066 35.1412 17.3887 33.0303 17.1504 30.9327C16.912 28.8086 16.6736 26.2463 16.4352 23.246L16.1969 20.2988C14.6077 20.3253 12.3431 20.2589 9.40307 20.0996L8.60848 20.0598C8.23767 20.0332 7.9728 19.8607 7.81388 19.542C7.68145 19.1969 7.61523 18.7322 7.61523 18.1481H10.3566C14.9652 18.1481 19.1236 18.3207 22.8317 18.6658C26.5398 19.011 28.3939 19.7146 28.3939 20.7767C28.3939 21.0688 28.3409 21.2679 28.235 21.3741C28.1555 21.4803 27.9701 21.5334 27.6787 21.5334C26.6193 21.4538 24.9771 21.2281 22.7523 20.8563C22.249 20.7767 21.6398 20.6838 20.9247 20.5776C20.2096 20.4713 19.4017 20.3651 18.5012 20.2589C18.5012 24.1089 19.0706 30.03 20.2096 38.022C20.2625 38.4203 20.4479 38.9912 20.7658 39.7346C20.8982 40.0532 21.0174 40.3984 21.1233 40.7701C21.2558 41.1153 21.322 41.4339 21.322 41.726C21.322 42.0977 21.269 42.3234 21.1631 42.4031C21.0571 42.4827 20.9247 42.5226 20.7658 42.5226C20.6333 42.5226 20.5406 42.5226 20.4877 42.5226ZM35.9919 42.4827C35.6475 42.6155 35.3165 42.5358 34.9986 42.2438C34.7073 41.9517 34.5483 41.5401 34.5219 41.0091C34.4159 40.2391 34.2967 39.2965 34.1643 38.1813C34.0583 37.0662 33.9789 36.2431 33.9259 35.712C33.8729 35.181 33.7538 34.1588 33.5683 32.6453C33.4094 31.1053 33.2373 29.7777 33.0519 28.6626C32.9989 28.2908 32.8267 27.627 32.5354 26.6712C31.7673 23.9363 31.3832 21.9582 31.3832 20.7369C31.5686 20.4713 31.754 20.3386 31.9394 20.3386C32.6281 20.3386 33.3432 21.7193 34.0848 24.4807C34.8265 27.242 35.4489 30.3619 35.9521 33.8401C36.4819 37.2919 36.7467 39.655 36.7467 40.9295C36.7467 40.9826 36.7467 41.1551 36.7467 41.4472C36.7467 41.7127 36.6805 41.9384 36.5481 42.1243C36.4421 42.3101 36.2567 42.4296 35.9919 42.4827ZM57.8969 22.6486C58.665 22.6486 59.4596 23.4053 60.2807 24.9188C61.1018 26.4322 61.7904 28.1713 62.3466 30.1362C62.9029 32.0745 63.181 33.5215 63.181 34.4774C63.181 35.9377 62.8631 37.252 62.2274 38.4203C61.6183 39.562 60.7442 40.4648 59.6053 41.1286C58.4664 41.7658 57.1685 42.0845 55.7118 42.0845C53.6988 42.0845 51.9507 41.5401 50.4674 40.4515C49.0107 39.3629 47.8453 38.115 46.9712 36.7077C46.0972 35.2739 45.1966 33.5613 44.2696 31.57L43.7134 30.3751L43.7929 40.0134C43.7929 40.5976 43.6869 41.1684 43.475 41.726C43.2896 42.257 42.9585 42.5226 42.4818 42.5226C42.005 42.5226 41.6607 42.257 41.4488 41.726C41.2369 41.1684 41.131 40.6241 41.131 40.0931C41.131 38.3938 41.2634 35.951 41.5283 32.7648C41.7931 29.5786 41.9256 27.2022 41.9256 25.6357C41.9256 25.2639 41.8991 24.8789 41.8461 24.4807C41.7931 24.0824 41.7534 23.8036 41.7269 23.6443C41.5945 22.9274 41.5283 22.2901 41.5283 21.7326V21.5732C41.6077 21.5732 41.8461 21.5201 42.2434 21.4139C42.6672 21.2812 42.9188 21.2148 42.9983 21.2148H43.3956C44.402 25.7551 45.8853 29.9503 47.8453 33.8003C49.8318 37.6238 52.5466 39.5355 55.9899 39.5355C57.6056 39.5355 58.8239 39.0576 59.645 38.1017C60.4926 37.1193 60.9164 35.805 60.9164 34.1588C60.9164 32.7515 60.6912 31.4638 60.241 30.2955C59.7907 29.1007 59.1153 27.6403 58.2147 25.9145L57.142 23.8036C57.0626 23.6708 57.0229 23.5381 57.0229 23.4053C57.0229 23.1929 57.1023 23.0203 57.2612 22.8876C57.4202 22.7282 57.632 22.6486 57.8969 22.6486ZM81.2503 19.5819C81.2503 19.4491 81.4092 19.3296 81.7271 19.2234C82.0449 19.0907 82.3495 19.0243 82.6408 19.0243C82.8527 19.0243 83.0117 19.0774 83.1176 19.1836C83.2235 19.2632 83.2235 19.396 83.1176 19.5819C82.9057 20.0067 82.429 20.9095 81.6873 22.2901C80.5749 24.3612 79.6876 26.1667 79.0254 27.7067C78.3633 29.2467 77.7938 31.1186 77.3171 33.3224C76.8403 35.5262 76.6019 38.0486 76.6019 40.8896L76.6417 43.1598C76.6417 43.4253 76.5225 43.6245 76.2841 43.7572C76.0722 43.89 75.7941 43.9563 75.4498 43.9563C75.1849 43.9563 75.0127 43.9165 74.9333 43.8369C74.8803 43.7572 74.8538 43.6377 74.8538 43.4784C74.8538 43.3191 74.8538 43.1996 74.8538 43.12C74.7744 42.0845 74.7346 41.102 74.7346 40.1727C74.7346 38.0751 74.92 36.0705 75.2908 34.1588C73.7017 32.1939 72.4038 30.5212 71.3973 29.1405C70.4173 27.7332 69.4903 26.18 68.6163 24.4807C67.7422 22.7813 66.9211 20.8165 66.1529 18.5862C66.2059 18.6127 66.4708 18.5995 66.9476 18.5463C67.4244 18.4932 67.6892 18.4667 67.7422 18.4667L69.0135 20.8962C70.5233 23.7638 71.7284 25.9543 72.629 27.4677C73.5295 28.9546 74.589 30.4017 75.8073 31.8089C76.3635 29.6848 77.039 27.7731 77.8335 26.0738C78.6546 24.3479 79.6214 22.4893 80.7338 20.4979L81.2503 19.5819Z" fill="#291F1E"/>
</svg>
