<svg width="111" height="87" viewBox="0 0 111 87" fill="none" xmlns="http://www.w3.org/2000/svg">
<path d="M53.25 87C76.8602 87 96 67.5244 96 43.5C96 19.4756 76.8602 0 53.25 0C29.6398 0 10.5 19.4756 10.5 43.5C10.5 67.5244 29.6398 87 53.25 87Z" fill="#D9E7F4"/>
<path d="M9.88208 68.724C11.3581 68.724 12.5011 68.517 13.3111 68.103C14.1211 67.689 14.5261 67.086 14.5261 66.294C14.5261 65.592 14.2831 64.989 13.7971 64.485C13.3111 63.963 12.7081 63.522 11.9881 63.162C11.2681 62.802 10.2871 62.379 9.04508 61.893C8.93708 61.857 8.67608 61.758 8.26208 61.596C6.57008 60.912 5.26508 60.228 4.34708 59.544C3.44708 58.86 2.99708 57.978 2.99708 56.898C2.99708 55.692 3.47408 54.783 4.42808 54.171C5.38208 53.559 6.60608 53.253 8.10008 53.253C9.19808 53.253 10.2061 53.397 11.1241 53.685C12.0601 53.955 12.7981 54.333 13.3381 54.819C13.8961 55.305 14.1751 55.854 14.1751 56.466C13.9591 56.574 13.7521 56.628 13.5541 56.628C13.3381 56.628 13.1131 56.583 12.8791 56.493C12.6631 56.385 12.3391 56.214 11.9071 55.98C11.2051 55.602 10.5481 55.305 9.93608 55.089C9.32408 54.855 8.60408 54.738 7.77608 54.738C6.73208 54.738 5.88608 54.918 5.23808 55.278C4.59008 55.638 4.26608 56.142 4.26608 56.79C4.26608 57.294 4.48208 57.753 4.91408 58.167C5.36408 58.581 5.92208 58.95 6.58808 59.274C7.27208 59.58 8.18108 59.949 9.31508 60.381C10.7551 60.939 11.9431 61.461 12.8791 61.947C13.8151 62.433 14.6071 63.054 15.2551 63.81C15.9211 64.548 16.2541 65.43 16.2541 66.456C16.2541 67.662 15.6781 68.598 14.5261 69.264C13.3741 69.912 11.9431 70.236 10.2331 70.236C8.88308 70.236 7.55108 70.038 6.23708 69.642C4.92308 69.246 3.79808 68.661 2.86208 67.887C1.92608 67.095 1.33208 66.15 1.08008 65.052C1.08008 64.566 1.21508 64.152 1.48508 63.81C1.75508 63.45 2.08808 63.27 2.48408 63.27C2.48408 64.44 2.80808 65.439 3.45608 66.267C4.12208 67.077 5.01308 67.689 6.12908 68.103C7.26308 68.517 8.51408 68.724 9.88208 68.724ZM26.7464 69.777C26.2424 69.777 25.8914 69.516 25.6934 68.994C25.4954 68.472 25.3334 67.77 25.2074 66.888L25.1264 66.213C24.8564 64.773 24.6404 63.342 24.4784 61.92C24.3164 60.48 24.1544 58.743 23.9924 56.709L23.8304 54.711C22.7504 54.729 21.2114 54.684 19.2134 54.576L18.6734 54.549C18.4214 54.531 18.2414 54.414 18.1334 54.198C18.0434 53.964 17.9984 53.649 17.9984 53.253H19.8614C22.9934 53.253 25.8194 53.37 28.3394 53.604C30.8594 53.838 32.1194 54.315 32.1194 55.035C32.1194 55.233 32.0834 55.368 32.0114 55.44C31.9574 55.512 31.8314 55.548 31.6334 55.548C30.9134 55.494 29.7974 55.341 28.2854 55.089C27.9434 55.035 27.5294 54.972 27.0434 54.9C26.5574 54.828 26.0084 54.756 25.3964 54.684C25.3964 57.294 25.7834 61.308 26.5574 66.726C26.5934 66.996 26.7194 67.383 26.9354 67.887C27.0254 68.103 27.1064 68.337 27.1784 68.589C27.2684 68.823 27.3134 69.039 27.3134 69.237C27.3134 69.489 27.2774 69.642 27.2054 69.696C27.1334 69.75 27.0434 69.777 26.9354 69.777C26.8454 69.777 26.7824 69.777 26.7464 69.777ZM41.9269 69.777C40.4329 69.777 39.0919 69.471 37.9039 68.859C36.7339 68.247 35.8159 67.383 35.1499 66.267C34.4839 65.151 34.1509 63.864 34.1509 62.406C34.1509 61.416 34.3489 60.507 34.7449 59.679C35.1409 58.851 35.7169 58.194 36.4729 57.708C37.2289 57.204 38.1199 56.952 39.1459 56.952C41.0899 56.952 42.8179 57.285 44.3299 57.951C45.8599 58.599 47.0479 59.535 47.8939 60.759C48.7579 61.983 49.1899 63.396 49.1899 64.998C49.1899 66.06 48.7939 66.951 48.0019 67.671C47.2279 68.391 46.2739 68.922 45.1399 69.264C44.0239 69.606 42.9529 69.777 41.9269 69.777ZM41.4139 68.373C43.2139 68.373 44.7259 68.103 45.9499 67.563C47.1919 67.023 47.8129 66.123 47.8129 64.863C47.8129 62.667 46.9669 61.02 45.2749 59.922C43.5829 58.806 41.4229 58.248 38.7949 58.248C37.5349 58.248 36.6439 58.626 36.1219 59.382C35.6179 60.12 35.3659 61.128 35.3659 62.406C35.3659 63.468 35.6179 64.458 36.1219 65.376C36.6439 66.276 37.3639 67.005 38.2819 67.563C39.1999 68.103 40.2439 68.373 41.4139 68.373ZM63.6256 70.668C63.4996 70.812 63.3196 70.884 63.0856 70.884C62.2396 70.884 60.8896 70.11 59.0356 68.562C57.1996 66.996 55.5706 65.439 54.1486 63.891C54.2386 64.377 54.4096 65.196 54.6616 66.348C54.7696 66.798 54.8596 67.23 54.9316 67.644C55.0216 68.058 55.0666 68.382 55.0666 68.616C55.0666 69.138 54.8776 69.453 54.4996 69.561C54.4096 69.795 54.1666 69.21 53.7706 67.806C53.3926 66.402 53.0326 64.782 52.6906 62.946C52.3666 61.092 52.2046 59.544 52.2046 58.302C52.2046 57.672 52.2586 57.159 52.3666 56.763C52.6006 56.583 52.7986 56.493 52.9606 56.493C53.2846 56.493 53.5096 56.772 53.6356 57.33C53.7616 57.87 53.8786 58.725 53.9866 59.895L54.0406 60.516C54.7426 60.48 55.6966 60.327 56.9026 60.057C58.1266 59.787 59.2156 59.418 60.1696 58.95C61.1416 58.464 61.6276 57.888 61.6276 57.222C61.6276 56.862 61.3666 56.466 60.8446 56.034C60.3406 55.584 59.5576 55.206 58.4956 54.9C57.4516 54.594 56.1646 54.441 54.6346 54.441H53.7706C52.7446 54.441 51.9436 54.612 51.3676 54.954C50.7916 55.278 50.5036 55.98 50.5036 57.06C50.2336 57.06 49.9906 56.889 49.7746 56.547C49.5586 56.205 49.4506 55.89 49.4506 55.602C49.4506 54.486 49.9816 53.757 51.0436 53.415C52.1236 53.073 53.6716 52.902 55.6876 52.902C56.7496 52.902 57.8566 53.073 59.0086 53.415C60.1606 53.757 61.1326 54.297 61.9246 55.035C62.7166 55.755 63.1126 56.655 63.1126 57.735C63.1126 58.473 62.7796 59.085 62.1136 59.571C61.4656 60.057 60.7006 60.435 59.8186 60.705C58.9366 60.975 57.8566 61.254 56.5786 61.542C55.5166 61.776 54.8236 61.947 54.4996 62.055C55.8856 63.927 57.2176 65.385 58.4956 66.429C59.7916 67.473 61.1416 68.418 62.5456 69.264C63.0316 69.552 63.3736 69.768 63.5716 69.912C63.7696 70.056 63.8686 70.191 63.8686 70.317C63.8686 70.443 63.7876 70.56 63.6256 70.668ZM68.3434 69.75C68.1094 69.84 67.8844 69.786 67.6684 69.588C67.4704 69.39 67.3624 69.111 67.3444 68.751C67.2724 68.229 67.1914 67.59 67.1014 66.834C67.0294 66.078 66.9754 65.52 66.9394 65.16C66.9034 64.8 66.8224 64.107 66.6964 63.081C66.5884 62.037 66.4714 61.137 66.3454 60.381C66.3094 60.129 66.1924 59.679 65.9944 59.031C65.4724 57.177 65.2114 55.836 65.2114 55.008C65.3374 54.828 65.4634 54.738 65.5894 54.738C66.0574 54.738 66.5434 55.674 67.0474 57.546C67.5514 59.418 67.9744 61.533 68.3164 63.891C68.6764 66.231 68.8564 67.833 68.8564 68.697C68.8564 68.733 68.8564 68.85 68.8564 69.048C68.8564 69.228 68.8114 69.381 68.7214 69.507C68.6494 69.633 68.5234 69.714 68.3434 69.75ZM77.1818 69.777C75.6878 69.777 74.5989 69.498 73.9149 68.94C73.2489 68.382 72.9159 67.374 72.9159 65.916L73.2939 59.868V54.063C73.2939 53.613 73.3839 53.325 73.5639 53.199C73.7439 53.055 74.1399 52.983 74.7519 52.983L76.5878 53.037C78.8918 53.163 81.1418 53.226 83.3378 53.226C83.8058 53.226 84.1748 53.361 84.4448 53.631C84.7328 53.901 84.8768 54.27 84.8768 54.738C84.8768 54.828 84.8498 54.9 84.7958 54.954C84.7418 55.008 84.6788 55.026 84.6068 55.008L83.3378 54.522L74.8869 54.738C74.7789 54.738 74.7159 54.729 74.6979 54.711C74.7699 54.855 74.8059 54.981 74.8059 55.089V59.868C75.6338 59.922 76.4348 59.949 77.2088 59.949C78.5408 59.949 80.0078 59.886 81.6098 59.76C81.7718 59.742 82.0148 59.724 82.3388 59.706C82.6808 59.67 82.8698 59.67 82.9058 59.706C83.0138 59.814 83.0948 59.913 83.1488 60.003C83.2028 60.093 83.2388 60.219 83.2568 60.381C83.3108 60.777 82.7078 61.038 81.4478 61.164C80.2058 61.29 78.5408 61.389 76.4528 61.461C75.7508 61.461 75.1658 61.479 74.6979 61.515C74.4819 62.055 74.3739 62.919 74.3739 64.107L74.4009 65.7V67.455C74.6889 67.689 75.0038 67.842 75.3458 67.914C75.6878 67.986 76.2458 68.022 77.0198 68.022C77.8298 68.022 78.6218 67.977 79.3958 67.887C80.1878 67.797 80.6558 67.743 80.7998 67.725C82.3118 67.545 83.4368 67.455 84.1748 67.455C84.6068 67.455 84.9038 67.5 85.0658 67.59C85.2458 67.662 85.3358 67.797 85.3358 67.995C85.3358 69.183 82.9238 69.777 78.0998 69.777H77.1818ZM96.4718 68.724C97.9478 68.724 99.0908 68.517 99.9008 68.103C100.711 67.689 101.116 67.086 101.116 66.294C101.116 65.592 100.873 64.989 100.387 64.485C99.9008 63.963 99.2978 63.522 98.5778 63.162C97.8578 62.802 96.8768 62.379 95.6348 61.893C95.5268 61.857 95.2658 61.758 94.8518 61.596C93.1598 60.912 91.8548 60.228 90.9368 59.544C90.0368 58.86 89.5868 57.978 89.5868 56.898C89.5868 55.692 90.0638 54.783 91.0178 54.171C91.9718 53.559 93.1958 53.253 94.6898 53.253C95.7878 53.253 96.7958 53.397 97.7138 53.685C98.6498 53.955 99.3878 54.333 99.9278 54.819C100.486 55.305 100.765 55.854 100.765 56.466C100.549 56.574 100.342 56.628 100.144 56.628C99.9278 56.628 99.7028 56.583 99.4688 56.493C99.2528 56.385 98.9288 56.214 98.4968 55.98C97.7948 55.602 97.1378 55.305 96.5258 55.089C95.9138 54.855 95.1938 54.738 94.3658 54.738C93.3218 54.738 92.4758 54.918 91.8278 55.278C91.1798 55.638 90.8558 56.142 90.8558 56.79C90.8558 57.294 91.0718 57.753 91.5038 58.167C91.9538 58.581 92.5118 58.95 93.1778 59.274C93.8618 59.58 94.7708 59.949 95.9048 60.381C97.3448 60.939 98.5328 61.461 99.4688 61.947C100.405 62.433 101.197 63.054 101.845 63.81C102.511 64.548 102.844 65.43 102.844 66.456C102.844 67.662 102.268 68.598 101.116 69.264C99.9638 69.912 98.5328 70.236 96.8228 70.236C95.4728 70.236 94.1408 70.038 92.8268 69.642C91.5128 69.246 90.3878 68.661 89.4518 67.887C88.5158 67.095 87.9218 66.15 87.6698 65.052C87.6698 64.566 87.8048 64.152 88.0748 63.81C88.3448 63.45 88.6778 63.27 89.0738 63.27C89.0738 64.44 89.3978 65.439 90.0458 66.267C90.7118 67.077 91.6028 67.689 92.7188 68.103C93.8528 68.517 95.1038 68.724 96.4718 68.724Z" fill="black"/>
<path d="M23.205 48.045C22.365 48.045 21.78 47.61 21.45 46.74C21.12 45.87 20.85 44.7 20.64 43.23L20.505 42.105C20.055 39.705 19.695 37.32 19.425 34.95C19.155 32.55 18.885 29.655 18.615 26.265L18.345 22.935C16.545 22.965 13.98 22.89 10.65 22.71L9.75 22.665C9.33 22.635 9.03 22.44 8.85 22.08C8.7 21.69 8.625 21.165 8.625 20.505H11.73C16.95 20.505 21.66 20.7 25.86 21.09C30.06 21.48 32.16 22.275 32.16 23.475C32.16 23.805 32.1 24.03 31.98 24.15C31.89 24.27 31.68 24.33 31.35 24.33C30.15 24.24 28.29 23.985 25.77 23.565C25.2 23.475 24.51 23.37 23.7 23.25C22.89 23.13 21.975 23.01 20.955 22.89C20.955 27.24 21.6 33.93 22.89 42.96C22.95 43.41 23.16 44.055 23.52 44.895C23.67 45.255 23.805 45.645 23.925 46.065C24.075 46.455 24.15 46.815 24.15 47.145C24.15 47.565 24.09 47.82 23.97 47.91C23.85 48 23.7 48.045 23.52 48.045C23.37 48.045 23.265 48.045 23.205 48.045ZM40.7659 48C40.3759 48.15 40.0009 48.06 39.6409 47.73C39.3109 47.4 39.1309 46.935 39.1009 46.335C38.9809 45.465 38.8459 44.4 38.6959 43.14C38.5759 41.88 38.4859 40.95 38.4259 40.35C38.3659 39.75 38.2309 38.595 38.0209 36.885C37.8409 35.145 37.6459 33.645 37.4359 32.385C37.3759 31.965 37.1809 31.215 36.8509 30.135C35.9809 27.045 35.5459 24.81 35.5459 23.43C35.7559 23.13 35.9659 22.98 36.1759 22.98C36.9559 22.98 37.7659 24.54 38.6059 27.66C39.4459 30.78 40.1509 34.305 40.7209 38.235C41.3209 42.135 41.6209 44.805 41.6209 46.245C41.6209 46.305 41.6209 46.5 41.6209 46.83C41.6209 47.13 41.5459 47.385 41.3959 47.595C41.2759 47.805 41.0659 47.94 40.7659 48ZM65.5767 25.59C66.4467 25.59 67.3467 26.445 68.2767 28.155C69.2067 29.865 69.9867 31.83 70.6167 34.05C71.2467 36.24 71.5617 37.875 71.5617 38.955C71.5617 40.605 71.2017 42.09 70.4817 43.41C69.7917 44.7 68.8017 45.72 67.5117 46.47C66.2217 47.19 64.7517 47.55 63.1017 47.55C60.8217 47.55 58.8417 46.935 57.1617 45.705C55.5117 44.475 54.1917 43.065 53.2017 41.475C52.2117 39.855 51.1917 37.92 50.1417 35.67L49.5117 34.32L49.6017 45.21C49.6017 45.87 49.4817 46.515 49.2417 47.145C49.0317 47.745 48.6567 48.045 48.1167 48.045C47.5767 48.045 47.1867 47.745 46.9467 47.145C46.7067 46.515 46.5867 45.9 46.5867 45.3C46.5867 43.38 46.7367 40.62 47.0367 37.02C47.3367 33.42 47.4867 30.735 47.4867 28.965C47.4867 28.545 47.4567 28.11 47.3967 27.66C47.3367 27.21 47.2917 26.895 47.2617 26.715C47.1117 25.905 47.0367 25.185 47.0367 24.555V24.375C47.1267 24.375 47.3967 24.315 47.8467 24.195C48.3267 24.045 48.6117 23.97 48.7017 23.97H49.1517C50.2917 29.1 51.9717 33.84 54.1917 38.19C56.4417 42.51 59.5167 44.67 63.4167 44.67C65.2467 44.67 66.6267 44.13 67.5567 43.05C68.5167 41.94 68.9967 40.455 68.9967 38.595C68.9967 37.005 68.7417 35.55 68.2317 34.23C67.7217 32.88 66.9567 31.23 65.9367 29.28L64.7217 26.895C64.6317 26.745 64.5867 26.595 64.5867 26.445C64.5867 26.205 64.6767 26.01 64.8567 25.86C65.0367 25.68 65.2767 25.59 65.5767 25.59ZM92.028 22.125C92.028 21.975 92.208 21.84 92.568 21.72C92.928 21.57 93.273 21.495 93.603 21.495C93.843 21.495 94.023 21.555 94.143 21.675C94.263 21.765 94.263 21.915 94.143 22.125C93.903 22.605 93.363 23.625 92.523 25.185C91.263 27.525 90.258 29.565 89.508 31.305C88.758 33.045 88.113 35.16 87.573 37.65C87.033 40.14 86.763 42.99 86.763 46.2L86.808 48.765C86.808 49.065 86.673 49.29 86.403 49.44C86.163 49.59 85.848 49.665 85.458 49.665C85.158 49.665 84.963 49.62 84.873 49.53C84.813 49.44 84.783 49.305 84.783 49.125C84.783 48.945 84.783 48.81 84.783 48.72C84.693 47.55 84.648 46.44 84.648 45.39C84.648 43.02 84.858 40.755 85.278 38.595C83.478 36.375 82.008 34.485 80.868 32.925C79.758 31.335 78.708 29.58 77.718 27.66C76.728 25.74 75.798 23.52 74.9279 21C74.9879 21.03 75.288 21.015 75.828 20.955C76.368 20.895 76.668 20.865 76.728 20.865L78.168 23.61C79.878 26.85 81.243 29.325 82.263 31.035C83.283 32.715 84.483 34.35 85.863 35.94C86.493 33.54 87.258 31.38 88.158 29.46C89.088 27.51 90.183 25.41 91.443 23.16L92.028 22.125Z" fill="black"/>
<path d="M52 87C75.7482 87 95 67.5244 95 43.5C95 19.4756 75.7482 0 52 0C28.2518 0 9 19.4756 9 43.5C9 67.5244 28.2518 87 52 87Z" fill="#F6AE2D" fill-opacity="0.8"/>
<path d="M8.82243 68.8378C10.3019 68.8378 11.4475 68.6306 12.2594 68.2162C13.0713 67.8018 13.4772 67.1982 13.4772 66.4054C13.4772 65.7027 13.2337 65.0991 12.7465 64.5946C12.2594 64.0721 11.655 63.6306 10.9333 63.2703C10.2117 62.9099 9.22838 62.4865 7.98349 62C7.87524 61.964 7.61363 61.8649 7.19867 61.7027C5.50275 61.018 4.19472 60.3333 3.27458 59.6486C2.3725 58.964 1.92145 58.0811 1.92145 57C1.92145 55.7928 2.39956 54.8829 3.35577 54.2703C4.31199 53.6577 5.53883 53.3513 7.0363 53.3513C8.13685 53.3513 9.14719 53.4955 10.0673 53.7838C11.0055 54.0541 11.7452 54.4324 12.2865 54.9189C12.8458 55.4054 13.1254 55.955 13.1254 56.5676C12.9089 56.6757 12.7014 56.7297 12.503 56.7297C12.2865 56.7297 12.0609 56.6847 11.8264 56.5946C11.6099 56.4865 11.2851 56.3153 10.8521 56.0811C10.1485 55.7027 9.48998 55.4054 8.87656 55.1892C8.26314 54.955 7.54147 54.8378 6.71154 54.8378C5.66512 54.8378 4.81716 55.018 4.16765 55.3784C3.51815 55.7387 3.1934 56.2432 3.1934 56.8919C3.1934 57.3964 3.4099 57.8559 3.8429 58.2703C4.29395 58.6847 4.85324 59.0541 5.52079 59.3784C6.20638 59.6847 7.11749 60.0541 8.25412 60.4865C9.69746 61.045 10.8882 61.5676 11.8264 62.0541C12.7646 62.5405 13.5584 63.1622 14.2079 63.9189C14.8755 64.6577 15.2092 65.5405 15.2092 66.5676C15.2092 67.7748 14.6319 68.7117 13.4772 69.3784C12.3225 70.027 10.8882 70.3514 9.17425 70.3514C7.82112 70.3514 6.48602 70.1532 5.16897 69.7568C3.85192 69.3604 2.72431 68.7748 1.78614 68C0.847964 67.2072 0.252585 66.2613 0 65.1622C0 64.6757 0.135313 64.2613 0.40594 63.9189C0.676567 63.5586 1.01034 63.3784 1.40726 63.3784C1.40726 64.5495 1.73201 65.5496 2.38152 66.3784C3.04906 67.1892 3.94213 67.8018 5.06072 68.2162C6.19735 68.6306 7.45126 68.8378 8.82243 68.8378ZM25.7259 69.8919C25.2207 69.8919 24.8689 69.6306 24.6704 69.1081C24.472 68.5856 24.3096 67.8829 24.1833 67L24.1021 66.3243C23.8315 64.8829 23.615 63.4504 23.4526 62.027C23.2902 60.5856 23.1278 58.8468 22.9655 56.8108L22.8031 54.8108C21.7206 54.8288 20.178 54.7838 18.1754 54.6757L17.6341 54.6486C17.3815 54.6306 17.2011 54.5135 17.0929 54.2973C17.0027 54.0631 16.9576 53.7477 16.9576 53.3513H18.8249C21.9641 53.3513 24.7967 53.4685 27.3226 53.7027C29.8484 53.9369 31.1113 54.4144 31.1113 55.1351C31.1113 55.3333 31.0753 55.4685 31.0031 55.5405C30.949 55.6126 30.8227 55.6486 30.6242 55.6486C29.9025 55.5946 28.7839 55.4414 27.2684 55.1892C26.9256 55.1351 26.5107 55.0721 26.0236 55C25.5364 54.9279 24.9861 54.8559 24.3727 54.7838C24.3727 57.3964 24.7606 61.4144 25.5364 66.8378C25.5725 67.1081 25.6988 67.4955 25.9153 68C26.0055 68.2162 26.0867 68.4505 26.1589 68.7027C26.2491 68.9369 26.2942 69.1532 26.2942 69.3514C26.2942 69.6036 26.2581 69.7568 26.1859 69.8108C26.1138 69.8649 26.0236 69.8919 25.9153 69.8919C25.8251 69.8919 25.7619 69.8919 25.7259 69.8919ZM40.9416 69.8919C39.4442 69.8919 38.1 69.5856 36.9093 68.973C35.7366 68.3604 34.8164 67.4955 34.1489 66.3784C33.4814 65.2613 33.1476 63.973 33.1476 62.5135C33.1476 61.5225 33.346 60.6126 33.743 59.7838C34.1399 58.955 34.7172 58.2973 35.475 57.8108C36.2327 57.3063 37.1258 57.054 38.1542 57.054C40.1027 57.054 41.8347 57.3874 43.3502 58.0541C44.8838 58.7027 46.0745 59.6396 46.9225 60.8649C47.7885 62.0901 48.2215 63.5045 48.2215 65.1081C48.2215 66.1712 47.8246 67.0631 47.0307 67.7838C46.2549 68.5045 45.2987 69.036 44.1621 69.3784C43.0435 69.7207 41.97 69.8919 40.9416 69.8919ZM40.4274 68.4865C42.2316 68.4865 43.7471 68.2162 44.974 67.6757C46.2189 67.1351 46.8413 66.2342 46.8413 64.973C46.8413 62.7748 45.9933 61.1261 44.2974 60.027C42.6015 58.9099 40.4365 58.3514 37.8024 58.3514C36.5394 58.3514 35.6464 58.7297 35.1232 59.4865C34.618 60.2252 34.3654 61.2342 34.3654 62.5135C34.3654 63.5766 34.618 64.5676 35.1232 65.4865C35.6464 66.3874 36.368 67.1171 37.2882 67.6757C38.2083 68.2162 39.2547 68.4865 40.4274 68.4865ZM62.6907 70.7838C62.5644 70.9279 62.384 71 62.1494 71C61.3015 71 59.9483 70.2252 58.09 68.6757C56.2498 67.1081 54.617 65.5496 53.1917 64C53.2819 64.4865 53.4533 65.3063 53.7059 66.4595C53.8141 66.9099 53.9043 67.3423 53.9765 67.7568C54.0667 68.1712 54.1118 68.4955 54.1118 68.7297C54.1118 69.2523 53.9224 69.5676 53.5435 69.6757C53.4533 69.9099 53.2097 69.3243 52.8128 67.9189C52.4339 66.5135 52.0731 64.8919 51.7303 63.0541C51.4056 61.1982 51.2432 59.6486 51.2432 58.4054C51.2432 57.7748 51.2973 57.2613 51.4056 56.8649C51.6401 56.6847 51.8386 56.5946 52.0009 56.5946C52.3257 56.5946 52.5512 56.8739 52.6775 57.4324C52.8038 57.973 52.9211 58.8288 53.0293 60L53.0834 60.6216C53.7871 60.5856 54.7433 60.4324 55.9521 60.1622C57.1789 59.8919 58.2705 59.5225 59.2267 59.0541C60.2009 58.5676 60.6881 57.991 60.6881 57.3243C60.6881 56.964 60.4265 56.5676 59.9032 56.1351C59.3981 55.6847 58.6133 55.3063 57.5488 55C56.5024 54.6937 55.2124 54.5405 53.6788 54.5405H52.8128C51.7844 54.5405 50.9816 54.7117 50.4042 55.0541C49.8269 55.3784 49.5382 56.0811 49.5382 57.1622C49.2676 57.1622 49.024 56.991 48.8075 56.6486C48.591 56.3063 48.4828 55.991 48.4828 55.7027C48.4828 54.5856 49.015 53.8559 50.0795 53.5135C51.162 53.1712 52.7136 53 54.7343 53C55.7987 53 56.9083 53.1712 58.063 53.5135C59.2177 53.8559 60.1919 54.3964 60.9858 55.1351C61.7796 55.8559 62.1765 56.7568 62.1765 57.8378C62.1765 58.5766 61.8427 59.1892 61.1752 59.6757C60.5257 60.1622 59.7589 60.5405 58.8749 60.8108C57.9908 61.0811 56.9083 61.3604 55.6273 61.6486C54.5629 61.8829 53.8683 62.0541 53.5435 62.1622C54.9327 64.036 56.2678 65.4955 57.5488 66.5405C58.8478 67.5856 60.2009 68.5315 61.6082 69.3784C62.0953 69.6667 62.4381 69.8829 62.6366 70.027C62.835 70.1712 62.9343 70.3063 62.9343 70.4324C62.9343 70.5586 62.8531 70.6757 62.6907 70.7838ZM67.4195 69.8649C67.1849 69.955 66.9594 69.9009 66.7429 69.7027C66.5444 69.5045 66.4362 69.2252 66.4181 68.8649C66.346 68.3423 66.2648 67.7027 66.1746 66.9459C66.1024 66.1892 66.0483 65.6306 66.0122 65.2703C65.9761 64.9099 65.8949 64.2162 65.7686 63.1892C65.6604 62.1441 65.5431 61.2432 65.4168 60.4865C65.3807 60.2342 65.2635 59.7838 65.065 59.1351C64.5418 57.2793 64.2802 55.9369 64.2802 55.1081C64.4065 54.9279 64.5328 54.8378 64.6591 54.8378C65.1281 54.8378 65.6153 55.7748 66.1204 57.6486C66.6256 59.5225 67.0496 61.6396 67.3924 64C67.7532 66.3423 67.9336 67.9459 67.9336 68.8108C67.9336 68.8468 67.9336 68.964 67.9336 69.1622C67.9336 69.3423 67.8885 69.4955 67.7983 69.6216C67.7262 69.7477 67.5999 69.8288 67.4195 69.8649ZM76.2784 69.8919C74.781 69.8919 73.6895 69.6126 73.0039 69.0541C72.3364 68.4955 72.0026 67.4865 72.0026 66.027L72.3815 59.973V54.1622C72.3815 53.7117 72.4717 53.4234 72.6521 53.2973C72.8325 53.1532 73.2294 53.0811 73.8429 53.0811L75.683 53.1351C77.9924 53.2613 80.2476 53.3243 82.4487 53.3243C82.9178 53.3243 83.2877 53.4595 83.5583 53.7297C83.847 54 83.9913 54.3694 83.9913 54.8378C83.9913 54.9279 83.9642 55 83.9101 55.0541C83.856 55.1081 83.7928 55.1261 83.7207 55.1081L82.4487 54.6216L73.9782 54.8378C73.8699 54.8378 73.8068 54.8288 73.7887 54.8108C73.8609 54.955 73.897 55.0811 73.897 55.1892V59.973C74.7268 60.027 75.5297 60.0541 76.3055 60.0541C77.6406 60.0541 79.111 59.991 80.7167 59.8649C80.8791 59.8468 81.1226 59.8288 81.4474 59.8108C81.7902 59.7748 81.9796 59.7748 82.0157 59.8108C82.124 59.9189 82.2051 60.018 82.2593 60.1081C82.3134 60.1982 82.3495 60.3243 82.3675 60.4865C82.4217 60.8829 81.8173 61.1441 80.5543 61.2703C79.3094 61.3964 77.6406 61.4955 75.5477 61.5676C74.8441 61.5676 74.2577 61.5856 73.7887 61.6216C73.5722 62.1622 73.464 63.027 73.464 64.2162L73.491 65.8108V67.5676C73.7797 67.8018 74.0954 67.955 74.4382 68.027C74.781 68.0991 75.3403 68.1351 76.116 68.1351C76.9279 68.1351 77.7218 68.0901 78.4976 68C79.2914 67.9099 79.7605 67.8559 79.9048 67.8378C81.4203 67.6577 82.5479 67.5676 83.2877 67.5676C83.7207 67.5676 84.0183 67.6126 84.1807 67.7027C84.3611 67.7748 84.4514 67.9099 84.4514 68.1081C84.4514 69.2973 82.0338 69.8919 77.1986 69.8919H76.2784ZM95.6132 68.8378C97.0926 68.8378 98.2383 68.6306 99.0502 68.2162C99.8621 67.8018 100.268 67.1982 100.268 66.4054C100.268 65.7027 100.024 65.0991 99.5373 64.5946C99.0502 64.0721 98.4458 63.6306 97.7241 63.2703C97.0024 62.9099 96.0191 62.4865 94.7743 62C94.666 61.964 94.4044 61.8649 93.9894 61.7027C92.2935 61.018 90.9855 60.3333 90.0654 59.6486C89.1633 58.964 88.7122 58.0811 88.7122 57C88.7122 55.7928 89.1903 54.8829 90.1465 54.2703C91.1028 53.6577 92.3296 53.3513 93.8271 53.3513C94.9276 53.3513 95.938 53.4955 96.8581 53.7838C97.7963 54.0541 98.536 54.4324 99.0772 54.9189C99.6365 55.4054 99.9162 55.955 99.9162 56.5676C99.6997 56.6757 99.4922 56.7297 99.2937 56.7297C99.0772 56.7297 98.8517 56.6847 98.6172 56.5946C98.4007 56.4865 98.0759 56.3153 97.6429 56.0811C96.9393 55.7027 96.2808 55.4054 95.6673 55.1892C95.0539 54.955 94.3322 54.8378 93.5023 54.8378C92.4559 54.8378 91.6079 55.018 90.9584 55.3784C90.3089 55.7387 89.9842 56.2432 89.9842 56.8919C89.9842 57.3964 90.2007 57.8559 90.6337 58.2703C91.0847 58.6847 91.644 59.0541 92.3116 59.3784C92.9971 59.6847 93.9083 60.0541 95.0449 60.4865C96.4882 61.045 97.679 61.5676 98.6172 62.0541C99.5553 62.5405 100.349 63.1622 100.999 63.9189C101.666 64.6577 102 65.5405 102 66.5676C102 67.7748 101.423 68.7117 100.268 69.3784C99.1133 70.027 97.679 70.3514 95.965 70.3514C94.6119 70.3514 93.2768 70.1532 91.9597 69.7568C90.6427 69.3604 89.5151 68.7748 88.5769 68C87.6387 67.2072 87.0434 66.2613 86.7908 65.1622C86.7908 64.6757 86.9261 64.2613 87.1967 63.9189C87.4673 63.5586 87.8011 63.3784 88.198 63.3784C88.198 64.5495 88.5228 65.5496 89.1723 66.3784C89.8398 67.1892 90.7329 67.8018 91.8515 68.2162C92.9881 68.6306 94.242 68.8378 95.6132 68.8378Z" fill="black"/>
<path d="M22.4765 48.3889C21.6424 48.3889 21.0616 47.9563 20.7339 47.091C20.4063 46.2258 20.1382 45.0622 19.9297 43.6003L19.7956 42.4815C19.3488 40.0946 18.9914 37.7227 18.7233 35.3657C18.4552 32.9789 18.1871 30.0998 17.919 26.7284L17.651 23.4167C15.8638 23.4465 13.317 23.3719 10.0106 23.1929L9.11701 23.1481C8.69999 23.1183 8.40212 22.9244 8.2234 22.5664C8.07447 22.1785 8 21.6564 8 21H11.0829C16.2659 21 20.9424 21.1939 25.1126 21.5818C29.2828 21.9697 31.3679 22.7603 31.3679 23.9537C31.3679 24.2819 31.3083 24.5057 31.1891 24.625C31.0998 24.7443 30.8913 24.804 30.5636 24.804C29.3721 24.7145 27.5253 24.4609 25.0232 24.0432C24.4573 23.9537 23.7722 23.8493 22.9679 23.7299C22.1637 23.6106 21.2552 23.4913 20.2424 23.3719C20.2424 27.698 20.8828 34.3513 22.1637 43.3318C22.2233 43.7793 22.4318 44.4208 22.7892 45.2562C22.9381 45.6142 23.0722 46.0021 23.1913 46.4198C23.3403 46.8076 23.4147 47.1656 23.4147 47.4938C23.4147 47.9115 23.3552 48.1651 23.236 48.2546C23.1169 48.3441 22.9679 48.3889 22.7892 48.3889C22.6403 48.3889 22.536 48.3889 22.4765 48.3889ZM39.9126 48.3441C39.5254 48.4933 39.153 48.4038 38.7956 48.0756C38.4679 47.7474 38.2892 47.285 38.2594 46.6883C38.1403 45.823 38.0062 44.7639 37.8573 43.5108C37.7382 42.2577 37.6488 41.3328 37.5892 40.7361C37.5297 40.1394 37.3956 38.9907 37.1871 37.2901C37.0084 35.5597 36.8148 34.0679 36.6063 32.8148C36.5467 32.3971 36.3531 31.6512 36.0254 30.5772C35.1616 27.5041 34.7297 25.2814 34.7297 23.909C34.9382 23.6106 35.1467 23.4614 35.3552 23.4614C36.1297 23.4614 36.9339 25.0129 37.7679 28.1157C38.602 31.2186 39.302 34.7243 39.8679 38.6327C40.4637 42.5113 40.7615 45.1667 40.7615 46.5988C40.7615 46.6584 40.7615 46.8524 40.7615 47.1806C40.7615 47.4789 40.6871 47.7325 40.5381 47.9414C40.419 48.1502 40.2105 48.2845 39.9126 48.3441ZM64.5472 26.0571C65.411 26.0571 66.3046 26.9074 67.228 28.608C68.1514 30.3086 68.9259 32.2629 69.5514 34.4707C70.177 36.6487 70.4897 38.2747 70.4897 39.3488C70.4897 40.9897 70.1323 42.4666 69.4174 43.7793C68.7323 45.0622 67.7493 46.0766 66.4685 46.8225C65.1876 47.5386 63.7281 47.8966 62.0898 47.8966C59.826 47.8966 57.8601 47.285 56.192 46.0617C54.5537 44.8385 53.2431 43.4362 52.2601 41.8549C51.2771 40.2438 50.2644 38.3194 49.2218 36.0818L48.5963 34.7392L48.6857 45.5694C48.6857 46.2258 48.5665 46.8673 48.3282 47.4938C48.1197 48.0905 47.7474 48.3889 47.2112 48.3889C46.6751 48.3889 46.2878 48.0905 46.0495 47.4938C45.8112 46.8673 45.6921 46.2557 45.6921 45.659C45.6921 43.7495 45.841 41.0046 46.1389 37.4244C46.4368 33.8441 46.5857 31.1739 46.5857 29.4136C46.5857 28.9959 46.5559 28.5633 46.4963 28.1157C46.4368 27.6682 46.3921 27.3549 46.3623 27.1759C46.2134 26.3704 46.1389 25.6543 46.1389 25.0278V24.8488C46.2283 24.8488 46.4963 24.7891 46.9431 24.6698C47.4197 24.5206 47.7027 24.446 47.7921 24.446H48.2389C49.3708 29.5478 51.0388 34.2618 53.2431 38.588C55.4771 42.8843 58.5303 45.0324 62.4026 45.0324C64.2196 45.0324 65.5898 44.4954 66.5132 43.4213C67.4663 42.3174 67.9429 40.8405 67.9429 38.9907C67.9429 37.4095 67.6897 35.9624 67.1834 34.6497C66.677 33.3071 65.9174 31.6662 64.9047 29.7269L63.6983 27.3549C63.6089 27.2058 63.5643 27.0566 63.5643 26.9074C63.5643 26.6687 63.6536 26.4748 63.8323 26.3256C64.0111 26.1466 64.2494 26.0571 64.5472 26.0571ZM90.8107 22.6111C90.8107 22.4619 90.9894 22.3277 91.3468 22.2083C91.7043 22.0592 92.0468 21.9846 92.3745 21.9846C92.6128 21.9846 92.7915 22.0442 92.9106 22.1636C93.0298 22.2531 93.0298 22.4023 92.9106 22.6111C92.6723 23.0885 92.1362 24.1029 91.3021 25.6543C90.0511 27.9815 89.0532 30.0103 88.3086 31.7407C87.5639 33.4712 86.9235 35.5746 86.3873 38.0509C85.8511 40.5273 85.583 43.3616 85.583 46.554L85.6277 49.1049C85.6277 49.4033 85.4937 49.6271 85.2256 49.7762C84.9873 49.9254 84.6745 50 84.2873 50C83.9894 50 83.7958 49.9552 83.7065 49.8657C83.6469 49.7762 83.6171 49.642 83.6171 49.463C83.6171 49.284 83.6171 49.1497 83.6171 49.0602C83.5278 47.8966 83.4831 46.7927 83.4831 45.7485C83.4831 43.3915 83.6916 41.1389 84.1086 38.9907C82.3214 36.7829 80.8618 34.9033 79.7299 33.3519C78.6278 31.7706 77.5853 30.0252 76.6023 28.1157C75.6193 26.2063 74.6959 23.9985 73.832 21.4923C73.8916 21.5221 74.1895 21.5072 74.7257 21.4475C75.2619 21.3879 75.5597 21.358 75.6193 21.358L77.0491 24.088C78.7469 27.3102 80.1023 29.7716 81.115 31.4722C82.1278 33.143 83.3192 34.769 84.6894 36.3503C85.315 33.9635 86.0745 31.8153 86.9681 29.9059C87.8915 27.9666 88.9788 25.8781 90.2298 23.6404L90.8107 22.6111Z" fill="black"/>
</svg>
