<svg width="111" height="87" viewBox="0 0 111 87" fill="none" xmlns="http://www.w3.org/2000/svg">
<path d="M53.25 87C76.8602 87 96 67.5244 96 43.5C96 19.4756 76.8602 0 53.25 0C29.6398 0 10.5 19.4756 10.5 43.5C10.5 67.5244 29.6398 87 53.25 87Z" fill="#A3CEF1"/>
<path d="M9.88208 68.724C11.3581 68.724 12.5011 68.517 13.3111 68.103C14.1211 67.689 14.5261 67.086 14.5261 66.294C14.5261 65.592 14.2831 64.989 13.7971 64.485C13.3111 63.963 12.7081 63.522 11.9881 63.162C11.2681 62.802 10.2871 62.379 9.04508 61.893C8.93708 61.857 8.67608 61.758 8.26208 61.596C6.57008 60.912 5.26508 60.228 4.34708 59.544C3.44708 58.86 2.99708 57.978 2.99708 56.898C2.99708 55.692 3.47408 54.783 4.42808 54.171C5.38208 53.559 6.60608 53.253 8.10008 53.253C9.19808 53.253 10.2061 53.397 11.1241 53.685C12.0601 53.955 12.7981 54.333 13.3381 54.819C13.8961 55.305 14.1751 55.854 14.1751 56.466C13.9591 56.574 13.7521 56.628 13.5541 56.628C13.3381 56.628 13.1131 56.583 12.8791 56.493C12.6631 56.385 12.3391 56.214 11.9071 55.98C11.2051 55.602 10.5481 55.305 9.93608 55.089C9.32408 54.855 8.60408 54.738 7.77608 54.738C6.73208 54.738 5.88608 54.918 5.23808 55.278C4.59008 55.638 4.26608 56.142 4.26608 56.79C4.26608 57.294 4.48208 57.753 4.91408 58.167C5.36408 58.581 5.92208 58.95 6.58808 59.274C7.27208 59.58 8.18108 59.949 9.31508 60.381C10.7551 60.939 11.9431 61.461 12.8791 61.947C13.8151 62.433 14.6071 63.054 15.2551 63.81C15.9211 64.548 16.2541 65.43 16.2541 66.456C16.2541 67.662 15.6781 68.598 14.5261 69.264C13.3741 69.912 11.9431 70.236 10.2331 70.236C8.88308 70.236 7.55108 70.038 6.23708 69.642C4.92308 69.246 3.79808 68.661 2.86208 67.887C1.92608 67.095 1.33208 66.15 1.08008 65.052C1.08008 64.566 1.21508 64.152 1.48508 63.81C1.75508 63.45 2.08808 63.27 2.48408 63.27C2.48408 64.44 2.80808 65.439 3.45608 66.267C4.12208 67.077 5.01308 67.689 6.12908 68.103C7.26308 68.517 8.51408 68.724 9.88208 68.724ZM26.7464 69.777C26.2424 69.777 25.8914 69.516 25.6934 68.994C25.4954 68.472 25.3334 67.77 25.2074 66.888L25.1264 66.213C24.8564 64.773 24.6404 63.342 24.4784 61.92C24.3164 60.48 24.1544 58.743 23.9924 56.709L23.8304 54.711C22.7504 54.729 21.2114 54.684 19.2134 54.576L18.6734 54.549C18.4214 54.531 18.2414 54.414 18.1334 54.198C18.0434 53.964 17.9984 53.649 17.9984 53.253H19.8614C22.9934 53.253 25.8194 53.37 28.3394 53.604C30.8594 53.838 32.1194 54.315 32.1194 55.035C32.1194 55.233 32.0834 55.368 32.0114 55.44C31.9574 55.512 31.8314 55.548 31.6334 55.548C30.9134 55.494 29.7974 55.341 28.2854 55.089C27.9434 55.035 27.5294 54.972 27.0434 54.9C26.5574 54.828 26.0084 54.756 25.3964 54.684C25.3964 57.294 25.7834 61.308 26.5574 66.726C26.5934 66.996 26.7194 67.383 26.9354 67.887C27.0254 68.103 27.1064 68.337 27.1784 68.589C27.2684 68.823 27.3134 69.039 27.3134 69.237C27.3134 69.489 27.2774 69.642 27.2054 69.696C27.1334 69.75 27.0434 69.777 26.9354 69.777C26.8454 69.777 26.7824 69.777 26.7464 69.777ZM41.9269 69.777C40.4329 69.777 39.0919 69.471 37.9039 68.859C36.7339 68.247 35.8159 67.383 35.1499 66.267C34.4839 65.151 34.1509 63.864 34.1509 62.406C34.1509 61.416 34.3489 60.507 34.7449 59.679C35.1409 58.851 35.7169 58.194 36.4729 57.708C37.2289 57.204 38.1199 56.952 39.1459 56.952C41.0899 56.952 42.8179 57.285 44.3299 57.951C45.8599 58.599 47.0479 59.535 47.8939 60.759C48.7579 61.983 49.1899 63.396 49.1899 64.998C49.1899 66.06 48.7939 66.951 48.0019 67.671C47.2279 68.391 46.2739 68.922 45.1399 69.264C44.0239 69.606 42.9529 69.777 41.9269 69.777ZM41.4139 68.373C43.2139 68.373 44.7259 68.103 45.9499 67.563C47.1919 67.023 47.8129 66.123 47.8129 64.863C47.8129 62.667 46.9669 61.02 45.2749 59.922C43.5829 58.806 41.4229 58.248 38.7949 58.248C37.5349 58.248 36.6439 58.626 36.1219 59.382C35.6179 60.12 35.3659 61.128 35.3659 62.406C35.3659 63.468 35.6179 64.458 36.1219 65.376C36.6439 66.276 37.3639 67.005 38.2819 67.563C39.1999 68.103 40.2439 68.373 41.4139 68.373ZM63.6256 70.668C63.4996 70.812 63.3196 70.884 63.0856 70.884C62.2396 70.884 60.8896 70.11 59.0356 68.562C57.1996 66.996 55.5706 65.439 54.1486 63.891C54.2386 64.377 54.4096 65.196 54.6616 66.348C54.7696 66.798 54.8596 67.23 54.9316 67.644C55.0216 68.058 55.0666 68.382 55.0666 68.616C55.0666 69.138 54.8776 69.453 54.4996 69.561C54.4096 69.795 54.1666 69.21 53.7706 67.806C53.3926 66.402 53.0326 64.782 52.6906 62.946C52.3666 61.092 52.2046 59.544 52.2046 58.302C52.2046 57.672 52.2586 57.159 52.3666 56.763C52.6006 56.583 52.7986 56.493 52.9606 56.493C53.2846 56.493 53.5096 56.772 53.6356 57.33C53.7616 57.87 53.8786 58.725 53.9866 59.895L54.0406 60.516C54.7426 60.48 55.6966 60.327 56.9026 60.057C58.1266 59.787 59.2156 59.418 60.1696 58.95C61.1416 58.464 61.6276 57.888 61.6276 57.222C61.6276 56.862 61.3666 56.466 60.8446 56.034C60.3406 55.584 59.5576 55.206 58.4956 54.9C57.4516 54.594 56.1646 54.441 54.6346 54.441H53.7706C52.7446 54.441 51.9436 54.612 51.3676 54.954C50.7916 55.278 50.5036 55.98 50.5036 57.06C50.2336 57.06 49.9906 56.889 49.7746 56.547C49.5586 56.205 49.4506 55.89 49.4506 55.602C49.4506 54.486 49.9816 53.757 51.0436 53.415C52.1236 53.073 53.6716 52.902 55.6876 52.902C56.7496 52.902 57.8566 53.073 59.0086 53.415C60.1606 53.757 61.1326 54.297 61.9246 55.035C62.7166 55.755 63.1126 56.655 63.1126 57.735C63.1126 58.473 62.7796 59.085 62.1136 59.571C61.4656 60.057 60.7006 60.435 59.8186 60.705C58.9366 60.975 57.8566 61.254 56.5786 61.542C55.5166 61.776 54.8236 61.947 54.4996 62.055C55.8856 63.927 57.2176 65.385 58.4956 66.429C59.7916 67.473 61.1416 68.418 62.5456 69.264C63.0316 69.552 63.3736 69.768 63.5716 69.912C63.7696 70.056 63.8686 70.191 63.8686 70.317C63.8686 70.443 63.7876 70.56 63.6256 70.668ZM68.3434 69.75C68.1094 69.84 67.8844 69.786 67.6684 69.588C67.4704 69.39 67.3624 69.111 67.3444 68.751C67.2724 68.229 67.1914 67.59 67.1014 66.834C67.0294 66.078 66.9754 65.52 66.9394 65.16C66.9034 64.8 66.8224 64.107 66.6964 63.081C66.5884 62.037 66.4714 61.137 66.3454 60.381C66.3094 60.129 66.1924 59.679 65.9944 59.031C65.4724 57.177 65.2114 55.836 65.2114 55.008C65.3374 54.828 65.4634 54.738 65.5894 54.738C66.0574 54.738 66.5434 55.674 67.0474 57.546C67.5514 59.418 67.9744 61.533 68.3164 63.891C68.6764 66.231 68.8564 67.833 68.8564 68.697C68.8564 68.733 68.8564 68.85 68.8564 69.048C68.8564 69.228 68.8114 69.381 68.7214 69.507C68.6494 69.633 68.5234 69.714 68.3434 69.75ZM77.1818 69.777C75.6878 69.777 74.5989 69.498 73.9149 68.94C73.2489 68.382 72.9159 67.374 72.9159 65.916L73.2939 59.868V54.063C73.2939 53.613 73.3839 53.325 73.5639 53.199C73.7439 53.055 74.1399 52.983 74.7519 52.983L76.5878 53.037C78.8918 53.163 81.1418 53.226 83.3378 53.226C83.8058 53.226 84.1748 53.361 84.4448 53.631C84.7328 53.901 84.8768 54.27 84.8768 54.738C84.8768 54.828 84.8498 54.9 84.7958 54.954C84.7418 55.008 84.6788 55.026 84.6068 55.008L83.3378 54.522L74.8869 54.738C74.7789 54.738 74.7159 54.729 74.6979 54.711C74.7699 54.855 74.8059 54.981 74.8059 55.089V59.868C75.6338 59.922 76.4348 59.949 77.2088 59.949C78.5408 59.949 80.0078 59.886 81.6098 59.76C81.7718 59.742 82.0148 59.724 82.3388 59.706C82.6808 59.67 82.8698 59.67 82.9058 59.706C83.0138 59.814 83.0948 59.913 83.1488 60.003C83.2028 60.093 83.2388 60.219 83.2568 60.381C83.3108 60.777 82.7078 61.038 81.4478 61.164C80.2058 61.29 78.5408 61.389 76.4528 61.461C75.7508 61.461 75.1658 61.479 74.6979 61.515C74.4819 62.055 74.3739 62.919 74.3739 64.107L74.4009 65.7V67.455C74.6889 67.689 75.0038 67.842 75.3458 67.914C75.6878 67.986 76.2458 68.022 77.0198 68.022C77.8298 68.022 78.6218 67.977 79.3958 67.887C80.1878 67.797 80.6558 67.743 80.7998 67.725C82.3118 67.545 83.4368 67.455 84.1748 67.455C84.6068 67.455 84.9038 67.5 85.0658 67.59C85.2458 67.662 85.3358 67.797 85.3358 67.995C85.3358 69.183 82.9238 69.777 78.0998 69.777H77.1818ZM96.4718 68.724C97.9478 68.724 99.0908 68.517 99.9008 68.103C100.711 67.689 101.116 67.086 101.116 66.294C101.116 65.592 100.873 64.989 100.387 64.485C99.9008 63.963 99.2978 63.522 98.5778 63.162C97.8578 62.802 96.8768 62.379 95.6348 61.893C95.5268 61.857 95.2658 61.758 94.8518 61.596C93.1598 60.912 91.8548 60.228 90.9368 59.544C90.0368 58.86 89.5868 57.978 89.5868 56.898C89.5868 55.692 90.0638 54.783 91.0178 54.171C91.9718 53.559 93.1958 53.253 94.6898 53.253C95.7878 53.253 96.7958 53.397 97.7138 53.685C98.6498 53.955 99.3878 54.333 99.9278 54.819C100.486 55.305 100.765 55.854 100.765 56.466C100.549 56.574 100.342 56.628 100.144 56.628C99.9278 56.628 99.7028 56.583 99.4688 56.493C99.2528 56.385 98.9288 56.214 98.4968 55.98C97.7948 55.602 97.1378 55.305 96.5258 55.089C95.9138 54.855 95.1938 54.738 94.3658 54.738C93.3218 54.738 92.4758 54.918 91.8278 55.278C91.1798 55.638 90.8558 56.142 90.8558 56.79C90.8558 57.294 91.0718 57.753 91.5038 58.167C91.9538 58.581 92.5118 58.95 93.1778 59.274C93.8618 59.58 94.7708 59.949 95.9048 60.381C97.3448 60.939 98.5328 61.461 99.4688 61.947C100.405 62.433 101.197 63.054 101.845 63.81C102.511 64.548 102.844 65.43 102.844 66.456C102.844 67.662 102.268 68.598 101.116 69.264C99.9638 69.912 98.5328 70.236 96.8228 70.236C95.4728 70.236 94.1408 70.038 92.8268 69.642C91.5128 69.246 90.3878 68.661 89.4518 67.887C88.5158 67.095 87.9218 66.15 87.6698 65.052C87.6698 64.566 87.8048 64.152 88.0748 63.81C88.3448 63.45 88.6778 63.27 89.0738 63.27C89.0738 64.44 89.3978 65.439 90.0458 66.267C90.7118 67.077 91.6028 67.689 92.7188 68.103C93.8528 68.517 95.1038 68.724 96.4718 68.724Z" fill="black"/>
<path d="M23.205 48.045C22.365 48.045 21.78 47.61 21.45 46.74C21.12 45.87 20.85 44.7 20.64 43.23L20.505 42.105C20.055 39.705 19.695 37.32 19.425 34.95C19.155 32.55 18.885 29.655 18.615 26.265L18.345 22.935C16.545 22.965 13.98 22.89 10.65 22.71L9.75 22.665C9.33 22.635 9.03 22.44 8.85 22.08C8.7 21.69 8.625 21.165 8.625 20.505H11.73C16.95 20.505 21.66 20.7 25.86 21.09C30.06 21.48 32.16 22.275 32.16 23.475C32.16 23.805 32.1 24.03 31.98 24.15C31.89 24.27 31.68 24.33 31.35 24.33C30.15 24.24 28.29 23.985 25.77 23.565C25.2 23.475 24.51 23.37 23.7 23.25C22.89 23.13 21.975 23.01 20.955 22.89C20.955 27.24 21.6 33.93 22.89 42.96C22.95 43.41 23.16 44.055 23.52 44.895C23.67 45.255 23.805 45.645 23.925 46.065C24.075 46.455 24.15 46.815 24.15 47.145C24.15 47.565 24.09 47.82 23.97 47.91C23.85 48 23.7 48.045 23.52 48.045C23.37 48.045 23.265 48.045 23.205 48.045ZM40.7659 48C40.3759 48.15 40.0009 48.06 39.6409 47.73C39.3109 47.4 39.1309 46.935 39.1009 46.335C38.9809 45.465 38.8459 44.4 38.6959 43.14C38.5759 41.88 38.4859 40.95 38.4259 40.35C38.3659 39.75 38.2309 38.595 38.0209 36.885C37.8409 35.145 37.6459 33.645 37.4359 32.385C37.3759 31.965 37.1809 31.215 36.8509 30.135C35.9809 27.045 35.5459 24.81 35.5459 23.43C35.7559 23.13 35.9659 22.98 36.1759 22.98C36.9559 22.98 37.7659 24.54 38.6059 27.66C39.4459 30.78 40.1509 34.305 40.7209 38.235C41.3209 42.135 41.6209 44.805 41.6209 46.245C41.6209 46.305 41.6209 46.5 41.6209 46.83C41.6209 47.13 41.5459 47.385 41.3959 47.595C41.2759 47.805 41.0659 47.94 40.7659 48ZM65.5767 25.59C66.4467 25.59 67.3467 26.445 68.2767 28.155C69.2067 29.865 69.9867 31.83 70.6167 34.05C71.2467 36.24 71.5617 37.875 71.5617 38.955C71.5617 40.605 71.2017 42.09 70.4817 43.41C69.7917 44.7 68.8017 45.72 67.5117 46.47C66.2217 47.19 64.7517 47.55 63.1017 47.55C60.8217 47.55 58.8417 46.935 57.1617 45.705C55.5117 44.475 54.1917 43.065 53.2017 41.475C52.2117 39.855 51.1917 37.92 50.1417 35.67L49.5117 34.32L49.6017 45.21C49.6017 45.87 49.4817 46.515 49.2417 47.145C49.0317 47.745 48.6567 48.045 48.1167 48.045C47.5767 48.045 47.1867 47.745 46.9467 47.145C46.7067 46.515 46.5867 45.9 46.5867 45.3C46.5867 43.38 46.7367 40.62 47.0367 37.02C47.3367 33.42 47.4867 30.735 47.4867 28.965C47.4867 28.545 47.4567 28.11 47.3967 27.66C47.3367 27.21 47.2917 26.895 47.2617 26.715C47.1117 25.905 47.0367 25.185 47.0367 24.555V24.375C47.1267 24.375 47.3967 24.315 47.8467 24.195C48.3267 24.045 48.6117 23.97 48.7017 23.97H49.1517C50.2917 29.1 51.9717 33.84 54.1917 38.19C56.4417 42.51 59.5167 44.67 63.4167 44.67C65.2467 44.67 66.6267 44.13 67.5567 43.05C68.5167 41.94 68.9967 40.455 68.9967 38.595C68.9967 37.005 68.7417 35.55 68.2317 34.23C67.7217 32.88 66.9567 31.23 65.9367 29.28L64.7217 26.895C64.6317 26.745 64.5867 26.595 64.5867 26.445C64.5867 26.205 64.6767 26.01 64.8567 25.86C65.0367 25.68 65.2767 25.59 65.5767 25.59ZM92.028 22.125C92.028 21.975 92.208 21.84 92.568 21.72C92.928 21.57 93.273 21.495 93.603 21.495C93.843 21.495 94.023 21.555 94.143 21.675C94.263 21.765 94.263 21.915 94.143 22.125C93.903 22.605 93.363 23.625 92.523 25.185C91.263 27.525 90.258 29.565 89.508 31.305C88.758 33.045 88.113 35.16 87.573 37.65C87.033 40.14 86.763 42.99 86.763 46.2L86.808 48.765C86.808 49.065 86.673 49.29 86.403 49.44C86.163 49.59 85.848 49.665 85.458 49.665C85.158 49.665 84.963 49.62 84.873 49.53C84.813 49.44 84.783 49.305 84.783 49.125C84.783 48.945 84.783 48.81 84.783 48.72C84.693 47.55 84.648 46.44 84.648 45.39C84.648 43.02 84.858 40.755 85.278 38.595C83.478 36.375 82.008 34.485 80.868 32.925C79.758 31.335 78.708 29.58 77.718 27.66C76.728 25.74 75.798 23.52 74.9279 21C74.9879 21.03 75.288 21.015 75.828 20.955C76.368 20.895 76.668 20.865 76.728 20.865L78.168 23.61C79.878 26.85 81.243 29.325 82.263 31.035C83.283 32.715 84.483 34.35 85.863 35.94C86.493 33.54 87.258 31.38 88.158 29.46C89.088 27.51 90.183 25.41 91.443 23.16L92.028 22.125Z" fill="black"/>
</svg>
